<svg width="115" height="26" viewBox="0 0 115 26" fill="none" xmlns="http://www.w3.org/2000/svg">
<path d="M39.6984 21.7652V22.973H25.5557V1.91006H27.6614C28.2012 1.90987 28.7358 2.01602 29.2345 2.22246C29.7333 2.42889 30.1865 2.73157 30.5683 3.1132C30.9501 3.49483 31.2529 3.94793 31.4595 4.44662C31.6662 4.94532 31.7725 5.47984 31.7725 6.01964V17.6556H35.5828C36.1229 17.655 36.6579 17.7608 37.1571 17.9671C37.6563 18.1733 38.11 18.4759 38.4922 18.8575C38.8744 19.2392 39.1777 19.6924 39.3846 20.1913C39.5916 20.6902 39.6982 21.225 39.6984 21.7652Z" fill="#020266"/>
<path d="M59.5777 16.1732H46.8251C47.2125 18.0373 48.4643 19.0005 50.333 19.0005C51.173 19.0208 51.9977 18.7734 52.6879 18.2941C53.3503 17.8064 54.1144 17.4767 54.9379 17.4767H59.327C58.1116 21.1837 54.6431 23.5006 50.333 23.5006C44.9731 23.5006 41.0018 19.7951 41.0018 14.8332C41.0018 9.87135 44.9397 6.1902 50.333 6.1902C55.8707 6.1902 59.7053 9.92604 59.7053 14.698C59.6997 15.1922 59.6571 15.6854 59.5777 16.1732ZM46.9253 13.0755H53.8698C53.3503 11.4514 52.1136 10.5748 50.3285 10.5748C48.6026 10.5748 47.4039 11.4605 46.9253 13.0755Z" fill="#020266"/>
<path d="M79.9677 16.1732H67.2059C67.5934 18.0373 68.8452 19.0005 70.7124 19.0005C71.5529 19.021 72.3781 18.7736 73.0687 18.2941C73.7311 17.8064 74.4953 17.4767 75.3188 17.4767H79.7079C78.4925 21.1837 75.024 23.5006 70.7124 23.5006C65.3525 23.5006 61.3811 19.7951 61.3811 14.8332C61.3811 9.87135 65.3206 6.1902 70.7124 6.1902C76.2501 6.1902 80.0847 9.92604 80.0847 14.698C80.0834 15.192 80.0443 15.6852 79.9677 16.1732ZM67.3169 13.0755H74.2614C73.7418 11.4514 72.5051 10.5748 70.7185 10.5748C68.9941 10.5748 67.7909 11.4605 67.3169 13.0755Z" fill="#020266"/>
<path d="M94.1117 20.3389V22.9733H90.0401C86.242 22.9733 83.9312 20.778 83.9312 17.1682V11.032H80.7879V9.7239L88.4844 1.97571H89.6998V6.7173H94.016V11.032H89.8487V16.1974C89.8487 17.3612 90.5916 18.0631 91.8404 18.0631C92.443 18.0651 93.0202 18.3057 93.4459 18.7322C93.8715 19.1587 94.1109 19.7364 94.1117 20.3389Z" fill="#020266"/>
<path d="M115 10.8193V22.9536H110.426L109.918 21.8051C108.426 22.9295 106.603 23.5269 104.735 23.5036C99.4809 23.5036 95.7253 19.8802 95.7253 14.8317C95.7253 9.7832 99.4809 6.21903 104.735 6.21903C106.631 6.19469 108.48 6.80961 109.984 7.96465L110.591 6.70823H110.895C111.984 6.70984 113.028 7.14369 113.798 7.91449C114.568 8.6853 115 9.73005 115 10.8193ZM109.379 14.8438C109.379 12.7351 107.75 11.152 105.534 11.152C103.317 11.152 101.688 12.7351 101.688 14.8438C101.688 16.9526 103.317 18.5493 105.534 18.5493C107.75 18.5493 109.371 16.9617 109.371 14.8408L109.379 14.8438Z" fill="#020266"/>
<path d="M14.7659 17.8787C14.3786 18.5139 13.8618 19.0604 13.2491 19.4824C12.6365 19.9045 11.9417 20.1927 11.2102 20.3282C10.4787 20.4638 9.72683 20.4436 9.00362 20.2691C8.28041 20.0946 7.6021 19.7696 7.0129 19.3154C6.42371 18.8611 5.93687 18.2878 5.58411 17.6328C5.23136 16.9778 5.02061 16.2558 4.96561 15.5138C4.9106 14.7719 5.01258 14.0267 5.2649 13.3268C5.51721 12.6269 5.91419 11.9881 6.42996 11.4519L10.2468 7.63511L10.2523 7.64217C11.1811 6.71317 11.7029 5.45329 11.7029 4.13962C11.7029 2.82595 11.1811 1.56607 10.2523 0.637063L10.2468 0.632355L2.91289 7.96704L2.88543 7.99372C1.88881 9.02003 1.11898 10.2443 0.62584 11.5872C0.132697 12.9301 -0.0727536 14.3616 0.0228061 15.789C0.341398 20.8394 4.40227 24.9537 9.44874 25.3374C10.8001 25.4414 12.1587 25.2766 13.446 24.8525C14.7333 24.4283 15.9237 23.7532 16.9486 22.8662C17.9734 21.9792 18.8123 20.8979 19.4167 19.6848C20.0211 18.4717 20.3791 17.1508 20.47 15.7985H18.3678C16.8807 15.7985 15.5428 16.6114 14.7659 17.8787Z" fill="#FD671E" />
<path className="bg-[#141388] dark:bg-white" d="M12.8583 14.5479C12.8578 15.1634 12.6174 15.7546 12.1881 16.1957C12.1734 16.2127 12.1577 16.2286 12.141 16.2436L10.4829 17.9025L8.77698 16.1957C8.50594 15.9163 8.30776 15.5744 8.19987 15.2004C8.09198 14.8263 8.07769 14.4314 8.15827 14.0505C8.23884 13.6696 8.4118 13.3144 8.66193 13.016C8.91206 12.7177 9.23169 12.4854 9.59269 12.3396C9.95369 12.1938 10.345 12.139 10.7321 12.18C11.1193 12.221 11.4905 12.3565 11.8129 12.5746C12.1354 12.7927 12.3994 13.0868 12.5815 13.4309C12.7636 13.7749 12.8584 14.1585 12.8575 14.5479H12.8583Z" fill="#141388"/>
</svg>
