<svg width="46" height="46" viewBox="0 0 46 46" fill="none" xmlns="http://www.w3.org/2000/svg">
<circle cx="23" cy="23" r="23" fill="#01013D"/>
<g clip-path="url(#clip0_11_286)">
<path d="M27.2792 27.5134C26.8207 28.2661 26.1623 28.8767 25.3772 29.2773C24.5921 29.6778 23.7113 29.8526 22.8328 29.782C20.5399 29.6022 18.6714 27.7553 18.4718 25.466C18.409 24.7863 18.4935 24.1011 18.7197 23.4571C18.9459 22.8132 19.3083 22.2255 19.7823 21.7344L23.2154 18.2987L23.2199 18.3054C23.6336 17.8917 23.9617 17.4004 24.1855 16.8599C24.4093 16.3193 24.5245 15.7399 24.5244 15.1548C24.5243 14.5697 24.409 13.9903 24.185 13.4498C23.961 12.9093 23.6328 12.4182 23.219 12.0045L23.2154 12L16.6173 18.5972L16.593 18.6219C15.6962 19.5452 15.0034 20.6467 14.5598 21.855C14.1161 23.0632 13.9315 24.3512 14.0178 25.6355C14.3046 30.1768 17.9575 33.8768 22.4961 34.2226C27.6942 34.6182 32.0803 30.6735 32.4099 25.6422H30.518C29.1818 25.6422 27.9765 26.3733 27.2792 27.5134Z" fill="#FD671E"/>
<path d="M25.5647 24.5165C25.5651 25.0715 25.349 25.6047 24.9622 26.0028C24.9492 26.0172 24.9348 26.0316 24.9173 26.0478L23.426 27.5404L21.8911 26.0051C21.6478 25.7537 21.4698 25.4464 21.373 25.1102C21.2762 24.774 21.2634 24.4192 21.3358 24.0769C21.4082 23.7346 21.5636 23.4153 21.7882 23.1471C22.0129 22.8789 22.3 22.67 22.6243 22.5387C22.9486 22.4074 23.3002 22.3577 23.6481 22.3941C23.9961 22.4305 24.3298 22.5518 24.62 22.7473C24.9101 22.9428 25.1478 23.2066 25.3121 23.5155C25.4764 23.8244 25.5624 24.1689 25.5624 24.5187L25.5647 24.5165Z" fill="#FD671E"/>
</g>
<defs>
<clipPath id="clip0_11_286">
<rect width="18.4114" height="22.25" fill="white" transform="translate(14 12)"/>
</clipPath>
</defs>
</svg>
