<svg width="59" height="26" viewBox="0 0 59 26" fill="none" xmlns="http://www.w3.org/2000/svg">
<path d="M2 9.07684C3.44948 11.8962 8.17679 24.8333 13.5803 22.8847C15.5172 22.1862 16.7207 18.4661 16.9406 16.5993C17.1558 14.7717 16.3264 12.6319 16.0343 10.8328C15.8901 9.9447 14.7091 7.72922 15.4824 8.19073C18.4843 9.98227 22.7807 20.6475 26.1842 20.2925C29.7647 19.919 31.5074 11.9404 31.1603 9.09496C30.9187 7.11445 29.7235 1.30766 30.4976 3.14608C32.2263 7.25175 34.3474 15.9816 38.9813 17.7787C44.9966 20.1115 52.1329 14.6268 56.3027 11.3638" stroke="url(#paint0_linear_11_274)" stroke-width="4" stroke-linecap="round"/>
<defs>
<linearGradient id="paint0_linear_11_274" x1="5.66976" y1="7.53168" x2="48.4121" y2="-2.95841" gradientUnits="userSpaceOnUse">
<stop stop-color="#D9B227"/>
<stop offset="1" stop-color="#FD4141"/>
</linearGradient>
</defs>
</svg>
